<mxfile host="Electron" modified="2024-04-23T15:33:21.174Z" agent="Mozilla/5.0 (Windows NT 10.0; Win64; x64) AppleWebKit/537.36 (KHTML, like Gecko) draw.io/24.1.0 Chrome/120.0.6099.109 Electron/28.1.0 Safari/537.36" etag="NncDmGuCndFngerWwp8E" version="24.1.0" type="device">
  <diagram name="Страница — 1" id="e_uj34zzvie9biT-qgOB">
    <mxGraphModel dx="630" dy="956" grid="1" gridSize="10" guides="1" tooltips="1" connect="1" arrows="1" fold="1" page="1" pageScale="1" pageWidth="827" pageHeight="1169" math="0" shadow="0">
      <root>
        <mxCell id="0" />
        <mxCell id="1" parent="0" />
        <mxCell id="mGvJ5eccr_nPjpczqmeW-26" value="а: Клиент" style="shape=umlActor;verticalLabelPosition=bottom;verticalAlign=top;html=1;" vertex="1" parent="1">
          <mxGeometry x="1270" y="420" width="30" height="60" as="geometry" />
        </mxCell>
        <mxCell id="mGvJ5eccr_nPjpczqmeW-27" value="d: Работник" style="shape=umlActor;verticalLabelPosition=bottom;verticalAlign=top;html=1;" vertex="1" parent="1">
          <mxGeometry x="1470" y="420" width="30" height="60" as="geometry" />
        </mxCell>
        <mxCell id="mGvJ5eccr_nPjpczqmeW-31" value="b: Менеджер автосервиса" style="html=1;whiteSpace=wrap;" vertex="1" parent="1">
          <mxGeometry x="1040" y="288" width="110" height="50" as="geometry" />
        </mxCell>
        <mxCell id="mGvJ5eccr_nPjpczqmeW-35" value="c: БД заказов" style="html=1;whiteSpace=wrap;" vertex="1" parent="1">
          <mxGeometry x="1040" y="570" width="110" height="50" as="geometry" />
        </mxCell>
        <mxCell id="mGvJ5eccr_nPjpczqmeW-48" value="" style="endArrow=none;html=1;rounded=0;entryX=1;entryY=1;entryDx=0;entryDy=0;exitX=0;exitY=0.3333333333333333;exitDx=0;exitDy=0;exitPerimeter=0;endFill=0;" edge="1" parent="1" source="mGvJ5eccr_nPjpczqmeW-26" target="mGvJ5eccr_nPjpczqmeW-31">
          <mxGeometry width="50" height="50" relative="1" as="geometry">
            <mxPoint x="1160" y="450" as="sourcePoint" />
            <mxPoint x="1210" y="400" as="targetPoint" />
          </mxGeometry>
        </mxCell>
        <mxCell id="mGvJ5eccr_nPjpczqmeW-49" value="" style="endArrow=none;html=1;rounded=0;entryX=0.5;entryY=0;entryDx=0;entryDy=0;exitX=0.5;exitY=1;exitDx=0;exitDy=0;endFill=0;" edge="1" parent="1" source="mGvJ5eccr_nPjpczqmeW-31" target="mGvJ5eccr_nPjpczqmeW-35">
          <mxGeometry width="50" height="50" relative="1" as="geometry">
            <mxPoint x="1170" y="542" as="sourcePoint" />
            <mxPoint x="1050" y="440" as="targetPoint" />
          </mxGeometry>
        </mxCell>
        <mxCell id="mGvJ5eccr_nPjpczqmeW-50" value="" style="endArrow=none;html=1;rounded=0;entryX=0;entryY=0.3333333333333333;entryDx=0;entryDy=0;exitX=1;exitY=0.5;exitDx=0;exitDy=0;entryPerimeter=0;endFill=0;" edge="1" parent="1" source="mGvJ5eccr_nPjpczqmeW-35" target="mGvJ5eccr_nPjpczqmeW-27">
          <mxGeometry width="50" height="50" relative="1" as="geometry">
            <mxPoint x="1300" y="498" as="sourcePoint" />
            <mxPoint x="1300" y="730" as="targetPoint" />
          </mxGeometry>
        </mxCell>
        <mxCell id="mGvJ5eccr_nPjpczqmeW-52" value="" style="shape=requiredInterface;html=1;verticalLabelPosition=bottom;sketch=0;rotation=0;" vertex="1" parent="1">
          <mxGeometry x="1500" y="440" width="39.85" height="40" as="geometry" />
        </mxCell>
        <mxCell id="mGvJ5eccr_nPjpczqmeW-53" value="" style="endArrow=none;html=1;rounded=0;entryX=1;entryY=1;entryDx=0;entryDy=0;exitX=0;exitY=1;exitDx=0;exitDy=0;exitPerimeter=0;endFill=0;" edge="1" parent="1" source="mGvJ5eccr_nPjpczqmeW-27" target="mGvJ5eccr_nPjpczqmeW-35">
          <mxGeometry width="50" height="50" relative="1" as="geometry">
            <mxPoint x="1250" y="672.5" as="sourcePoint" />
            <mxPoint x="1570" y="517.5" as="targetPoint" />
          </mxGeometry>
        </mxCell>
        <mxCell id="mGvJ5eccr_nPjpczqmeW-54" style="edgeStyle=orthogonalEdgeStyle;rounded=0;orthogonalLoop=1;jettySize=auto;html=1;exitX=0;exitY=0.3333333333333333;exitDx=0;exitDy=0;exitPerimeter=0;entryX=1;entryY=0.3333333333333333;entryDx=0;entryDy=0;entryPerimeter=0;endArrow=none;endFill=0;" edge="1" parent="1" source="mGvJ5eccr_nPjpczqmeW-27" target="mGvJ5eccr_nPjpczqmeW-26">
          <mxGeometry relative="1" as="geometry" />
        </mxCell>
        <mxCell id="mGvJ5eccr_nPjpczqmeW-56" value="" style="endArrow=classic;html=1;rounded=0;" edge="1" parent="1">
          <mxGeometry width="50" height="50" relative="1" as="geometry">
            <mxPoint x="1241" y="400" as="sourcePoint" />
            <mxPoint x="1202" y="360" as="targetPoint" />
          </mxGeometry>
        </mxCell>
        <mxCell id="mGvJ5eccr_nPjpczqmeW-57" value="" style="endArrow=classic;html=1;rounded=0;" edge="1" parent="1">
          <mxGeometry width="50" height="50" relative="1" as="geometry">
            <mxPoint x="1080" y="420" as="sourcePoint" />
            <mxPoint x="1080" y="480" as="targetPoint" />
          </mxGeometry>
        </mxCell>
        <mxCell id="mGvJ5eccr_nPjpczqmeW-58" value="" style="endArrow=classic;html=1;rounded=0;" edge="1" parent="1">
          <mxGeometry width="50" height="50" relative="1" as="geometry">
            <mxPoint x="1241" y="535" as="sourcePoint" />
            <mxPoint x="1301" y="510" as="targetPoint" />
          </mxGeometry>
        </mxCell>
        <mxCell id="mGvJ5eccr_nPjpczqmeW-59" value="" style="endArrow=classic;html=1;rounded=0;" edge="1" parent="1">
          <mxGeometry width="50" height="50" relative="1" as="geometry">
            <mxPoint x="1560" y="485" as="sourcePoint" />
            <mxPoint x="1560" y="435" as="targetPoint" />
          </mxGeometry>
        </mxCell>
        <mxCell id="mGvJ5eccr_nPjpczqmeW-60" value="" style="endArrow=classic;html=1;rounded=0;dashed=1;" edge="1" parent="1">
          <mxGeometry width="50" height="50" relative="1" as="geometry">
            <mxPoint x="1410" y="424.58" as="sourcePoint" />
            <mxPoint x="1340" y="424.58" as="targetPoint" />
          </mxGeometry>
        </mxCell>
        <mxCell id="mGvJ5eccr_nPjpczqmeW-61" value="" style="endArrow=classic;html=1;rounded=0;" edge="1" parent="1">
          <mxGeometry width="50" height="50" relative="1" as="geometry">
            <mxPoint x="1370" y="540" as="sourcePoint" />
            <mxPoint x="1300" y="570" as="targetPoint" />
          </mxGeometry>
        </mxCell>
        <mxCell id="mGvJ5eccr_nPjpczqmeW-62" value="&lt;span style=&quot;font-size: 11px; text-align: left; background-color: rgb(255, 255, 255);&quot;&gt;1: сдачаТСВРемонт()&lt;/span&gt;" style="text;html=1;align=center;verticalAlign=middle;resizable=0;points=[];autosize=1;strokeColor=none;fillColor=none;rotation=45;" vertex="1" parent="1">
          <mxGeometry x="1176" y="350" width="130" height="30" as="geometry" />
        </mxCell>
        <mxCell id="mGvJ5eccr_nPjpczqmeW-63" value="&lt;span style=&quot;font-size: 11px; text-align: left; background-color: rgb(255, 255, 255);&quot;&gt;2: внесениеЗаказавБД()&lt;/span&gt;" style="text;html=1;align=center;verticalAlign=middle;resizable=0;points=[];autosize=1;strokeColor=none;fillColor=none;" vertex="1" parent="1">
          <mxGeometry x="930" y="435" width="150" height="30" as="geometry" />
        </mxCell>
        <mxCell id="mGvJ5eccr_nPjpczqmeW-64" value="&lt;span style=&quot;font-size: 9px; text-align: left; background-color: rgb(255, 255, 255);&quot;&gt;3: передачаИнформацииОТС()&lt;/span&gt;" style="text;html=1;align=center;verticalAlign=middle;resizable=0;points=[];autosize=1;strokeColor=none;fillColor=none;" vertex="1" parent="1">
          <mxGeometry x="1120" y="500" width="150" height="30" as="geometry" />
        </mxCell>
        <mxCell id="mGvJ5eccr_nPjpczqmeW-65" value="4: проведениеРаботПоПочинкеТС()" style="text;html=1;align=center;verticalAlign=middle;resizable=0;points=[];autosize=1;strokeColor=none;fillColor=none;" vertex="1" parent="1">
          <mxGeometry x="1570" y="450" width="220" height="30" as="geometry" />
        </mxCell>
        <mxCell id="mGvJ5eccr_nPjpczqmeW-66" value="&lt;font style=&quot;font-size: 10px;&quot;&gt;5: подтверждениеВыполненияЗаказа()&lt;/font&gt;" style="text;html=1;align=center;verticalAlign=middle;resizable=0;points=[];autosize=1;strokeColor=none;fillColor=none;rotation=-25;" vertex="1" parent="1">
          <mxGeometry x="1250" y="560" width="200" height="30" as="geometry" />
        </mxCell>
        <mxCell id="mGvJ5eccr_nPjpczqmeW-67" value="6: передачаТСКлиенту()" style="text;html=1;align=center;verticalAlign=middle;resizable=0;points=[];autosize=1;strokeColor=none;fillColor=none;" vertex="1" parent="1">
          <mxGeometry x="1290" y="390" width="160" height="30" as="geometry" />
        </mxCell>
      </root>
    </mxGraphModel>
  </diagram>
</mxfile>
